<svg width="158" height="55" viewBox="0 0 158 55" fill="none" xmlns="http://www.w3.org/2000/svg">
<path d="M2.95694 26.408L12.9889 6.008C13.6289 4.696 14.6849 4.04 16.1569 4.04C17.5969 4.04 18.6369 4.696 19.2769 6.008L29.3089 26.408C30.2689 28.296 29.6929 29.24 27.5809 29.24H27.5329C26.4449 29.24 25.6769 28.76 25.2289 27.8L22.9729 23.192H15.1489C14.2209 23.192 13.5969 22.952 13.2769 22.472C12.9569 21.992 13.0209 21.336 13.4689 20.504C13.9169 19.64 14.6049 19.208 15.5329 19.208H21.1009L16.1569 9.032L7.03694 27.8C6.58894 28.76 5.82094 29.24 4.73294 29.24C2.58894 29.24 1.99694 28.296 2.95694 26.408ZM34.2428 8.312H34.3868C35.3468 8.312 36.0828 8.76 36.5948 9.656L45.2828 26.792C46.1148 28.424 45.5708 29.24 43.6508 29.24C42.6588 29.24 41.9388 28.792 41.4908 27.896L32.7068 10.76C31.8748 9.128 32.3868 8.312 34.2428 8.312ZM45.8588 20.456L50.4668 9.656C50.8508 8.76 51.5868 8.312 52.6748 8.312C54.4348 8.312 54.9788 9.144 54.3068 10.808L48.0668 24.872C47.9068 25.224 47.7628 25.4 47.6348 25.4C47.4748 25.4 47.3148 25.24 47.1548 24.92L45.9548 22.616C45.6028 21.912 45.5708 21.192 45.8588 20.456ZM56.9491 26.84L65.9251 9.512C66.2131 8.84 66.7571 8.504 67.5571 8.504H68.9491C69.6851 8.504 70.2291 8.84 70.5811 9.512L79.7011 26.84C80.5651 28.44 80.0691 29.24 78.2131 29.24C77.1571 29.24 76.3571 28.744 75.8131 27.752L74.0371 24.44H66.3091C65.6051 24.44 65.3971 24.104 65.6851 23.432L66.6931 21.464C66.9171 21.048 67.2531 20.84 67.7011 20.84H72.1651L68.2771 13.16L60.8371 27.752C60.3571 28.744 59.5411 29.24 58.3891 29.24C56.5971 29.24 56.1171 28.44 56.9491 26.84ZM87.0188 8.552H88.3148C88.8588 8.552 89.3228 8.744 89.7068 9.128L102.907 22.664V10.328C102.907 8.984 103.595 8.312 104.971 8.312C106.315 8.312 106.987 8.984 106.987 10.328V27.8C106.987 28.76 106.491 29.24 105.499 29.24C104.571 29.24 103.755 28.888 103.051 28.184L86.4908 11.144C86.0748 10.728 85.8668 10.248 85.8668 9.704C85.8668 8.936 86.2508 8.552 87.0188 8.552ZM86.9228 15.128L89.3708 17.624C89.7548 18.008 89.9468 18.472 89.9468 19.016V27.176C89.9468 28.552 89.2748 29.24 87.9308 29.24C86.5548 29.24 85.8668 28.552 85.8668 27.176V15.56C85.8668 14.984 85.9948 14.696 86.2508 14.696C86.4108 14.696 86.6348 14.84 86.9228 15.128ZM111.76 10.328C111.76 9.112 112.368 8.504 113.584 8.504H130.576C131.792 8.504 132.4 9.128 132.4 10.376C132.4 11.592 131.792 12.2 130.576 12.2H113.584C112.368 12.2 111.76 11.576 111.76 10.328ZM120.016 27.224V16.472C120.016 15.16 120.688 14.504 122.032 14.504H122.128C123.44 14.504 124.096 15.16 124.096 16.472V27.224C124.096 28.568 123.408 29.24 122.032 29.24C120.688 29.24 120.016 28.568 120.016 27.224ZM142.003 8.504H152.035C153.283 8.504 153.907 9.112 153.907 10.328V10.376C153.907 11.592 153.283 12.2 152.035 12.2H142.243C141.411 12.2 140.835 12.36 140.515 12.68C140.227 13 140.083 13.56 140.083 14.36C140.083 15.16 140.243 15.736 140.563 16.088C140.883 16.408 141.443 16.568 142.243 16.568H149.491C151.507 16.568 153.043 17.112 154.099 18.2C155.187 19.288 155.731 20.808 155.731 22.76C155.731 24.744 155.187 26.28 154.099 27.368C153.043 28.456 151.507 29 149.491 29H138.691C137.507 29 136.915 28.376 136.915 27.128C136.915 25.912 137.507 25.304 138.691 25.304H149.347C150.211 25.304 150.819 25.112 151.171 24.728C151.523 24.344 151.699 23.688 151.699 22.76C151.699 21.896 151.507 21.272 151.123 20.888C150.771 20.472 150.179 20.264 149.347 20.264H142.003C140.115 20.264 138.643 19.752 137.587 18.728C136.563 17.672 136.051 16.232 136.051 14.408C136.051 12.552 136.563 11.112 137.587 10.088C138.643 9.032 140.115 8.504 142.003 8.504Z" fill="url(#paint0_linear_520_31)"/>
<path d="M136.371 51H134.227V49.944C133.683 50.7973 132.851 51.224 131.731 51.224C130.59 51.224 129.678 50.8293 128.995 50.04C128.323 49.24 127.987 48.1733 127.987 46.84C127.987 45.5387 128.313 44.4933 128.963 43.704C129.625 42.9147 130.505 42.52 131.603 42.52C132.115 42.52 132.595 42.6267 133.043 42.84C133.502 43.0533 133.859 43.3627 134.115 43.768V39.608H136.371V51ZM134.195 46.856C134.195 46.056 134.019 45.432 133.667 44.984C133.326 44.536 132.846 44.312 132.227 44.312C131.609 44.312 131.129 44.536 130.787 44.984C130.446 45.432 130.275 46.0507 130.275 46.84C130.275 47.64 130.446 48.2693 130.787 48.728C131.139 49.176 131.619 49.4 132.227 49.4C132.857 49.4 133.342 49.1813 133.683 48.744C134.025 48.296 134.195 47.6667 134.195 46.856ZM146.265 48.44C146.009 49.3253 145.534 50.0133 144.841 50.504C144.158 50.9947 143.342 51.24 142.393 51.24C141.123 51.24 140.099 50.8453 139.321 50.056C138.553 49.2667 138.169 48.2213 138.169 46.92C138.169 45.64 138.558 44.584 139.337 43.752C140.115 42.92 141.107 42.504 142.313 42.504C143.561 42.504 144.553 42.9307 145.289 43.784C146.025 44.6267 146.393 45.7733 146.393 47.224V47.448H140.473C140.483 48.1627 140.654 48.7067 140.985 49.08C141.326 49.4533 141.801 49.64 142.409 49.64C143.209 49.64 143.769 49.24 144.089 48.44H146.265ZM144.089 46.008C144.035 45.464 143.859 45.0213 143.561 44.68C143.262 44.328 142.846 44.152 142.313 44.152C141.811 44.152 141.395 44.3173 141.065 44.648C140.734 44.9787 140.537 45.432 140.473 46.008H144.089ZM153.228 42.744H155.484L152.684 51H150.14L147.308 42.744H149.708L151.468 48.376L153.228 42.744Z" fill="#9278D4"/>
<line x1="3" y1="47" x2="115" y2="47" stroke="url(#paint1_linear_520_31)" stroke-width="2" stroke-linecap="round"/>
<defs>
<linearGradient id="paint0_linear_520_31" x1="0" y1="19.5" x2="158" y2="19.5" gradientUnits="userSpaceOnUse">
<stop stop-color="#84FAB0"/>
<stop offset="1" stop-color="#8FD3F4"/>
</linearGradient>
<linearGradient id="paint1_linear_520_31" x1="2" y1="48.5" x2="116" y2="48.5" gradientUnits="userSpaceOnUse">
<stop stop-color="#84FAB0"/>
<stop offset="1" stop-color="#8FD3F4"/>
</linearGradient>
</defs>
</svg>
